<?xml version="1.0" standalone="no"?>
<!DOCTYPE svg PUBLIC "-//W3C//DTD SVG 20010904//EN"
 "http://www.w3.org/TR/2001/REC-SVG-20010904/DTD/svg10.dtd">
<svg version="1.0" xmlns="http://www.w3.org/2000/svg"
 width="350.000000pt" height="350.000000pt" viewBox="0 0 350.000000 350.000000"
 preserveAspectRatio="xMidYMid meet">
<metadata>
Created by potrace 1.11, written by Peter Selinger 2001-2013
</metadata>
<g transform="translate(0.000000,350.000000) scale(0.100000,-0.100000)"
fill="#000000" stroke="none">
<path d="M1214 3284 c4 -10 2 -13 -7 -7 -21 13 -39 12 -34 -2 4 -9 -1 -11 -14
-8 -10 3 -16 10 -12 17 3 6 -4 1 -16 -11 -22 -24 -37 -31 -26 -13 3 6 1 10 -4
10 -6 0 -11 -5 -11 -11 0 -5 -4 -7 -10 -4 -5 3 -10 1 -10 -6 0 -8 -4 -8 -16 1
-8 8 -14 9 -12 3 2 -6 0 -10 -4 -9 -4 0 -14 -8 -23 -19 -9 -11 -13 -14 -9 -6
4 9 2 12 -7 9 -8 -3 -13 -11 -11 -18 2 -11 0 -11 -11 -1 -12 9 -16 8 -21 -5
-4 -9 -13 -14 -21 -10 -8 3 -15 1 -15 -4 0 -6 -5 -10 -11 -10 -5 0 -7 6 -4 13
4 6 0 4 -7 -5 -9 -10 -25 -15 -41 -14 -15 2 -27 -1 -27 -7 0 -5 -8 -3 -17 4
-12 10 -15 11 -9 1 6 -9 1 -11 -19 -8 -24 4 -25 3 -13 -12 11 -14 9 -14 -16 2
-16 10 -26 14 -22 8 3 -5 -1 -12 -9 -16 -8 -3 -15 0 -15 7 0 8 -4 6 -10 -3 -5
-8 -10 -11 -10 -6 0 5 -8 2 -17 -5 -9 -8 -14 -9 -10 -3 3 6 0 11 -8 11 -8 0
-12 -4 -9 -9 3 -5 -6 -7 -20 -4 -20 4 -24 1 -19 -12 4 -13 3 -14 -6 -6 -14 13
-64 6 -55 -7 3 -5 -2 -6 -11 -3 -8 4 -23 0 -32 -7 -14 -12 -16 -12 -8 0 6 11
3 10 -15 -2 -17 -12 -28 -14 -43 -6 -13 8 -17 8 -13 0 4 -5 -3 -15 -15 -21
-17 -10 -20 -9 -14 2 6 10 5 10 -5 1 -7 -6 -18 -9 -25 -7 -7 3 -16 0 -21 -7
-5 -8 -3 -10 6 -4 9 5 11 4 6 -4 -6 -9 -11 -9 -22 0 -11 9 -14 9 -14 0 0 -7
-4 -10 -9 -7 -14 9 -42 -5 -34 -17 4 -6 1 -7 -6 -3 -7 5 -22 0 -34 -11 -19
-15 -20 -16 -8 0 19 25 6 21 -20 -5 -12 -13 -19 -17 -15 -11 5 9 2 11 -8 7 -9
-3 -16 -10 -16 -14 0 -5 -9 -7 -21 -5 -16 3 -18 1 -10 -8 7 -10 2 -12 -24 -12
-19 1 -32 -2 -29 -7 3 -4 0 -8 -7 -8 -7 0 -10 -3 -7 -6 4 -3 16 0 28 6 14 8
20 8 16 1 -4 -6 -25 -15 -47 -21 -23 -7 -37 -15 -33 -21 4 -7 0 -7 -14 0 -21
11 -21 10 -22 -229 -1 -237 4 -295 21 -284 5 3 7 10 4 15 -3 5 1 6 9 3 9 -3
13 -10 10 -15 -3 -5 4 -9 16 -9 12 0 18 -4 15 -10 -3 -5 -2 -10 4 -10 5 0 12
6 14 13 4 10 6 10 6 0 1 -7 13 -13 27 -13 17 0 23 -4 18 -12 -4 -7 4 -2 19 11
16 14 30 20 39 15 11 -6 11 -5 0 8 -11 14 -10 17 9 23 16 6 18 9 8 16 -7 4
-10 11 -6 15 3 4 15 1 24 -7 16 -11 16 -11 5 1 -11 12 -7 20 20 43 18 16 27
26 20 22 -17 -9 -15 3 3 22 8 8 12 20 8 26 -4 7 0 8 12 3 16 -6 16 -4 4 10
-13 16 -12 16 8 6 14 -8 24 -9 28 -2 3 5 3 10 -2 10 -4 0 0 5 10 11 9 6 15 15
11 21 -4 6 1 6 15 -1 17 -9 20 -9 15 3 -3 8 5 25 17 37 15 15 20 17 16 6 -3
-9 -2 -19 4 -22 5 -4 8 -1 7 5 -2 7 6 17 17 23 11 7 22 13 25 15 2 2 -2 7 -10
13 -11 7 -6 8 14 3 25 -6 28 -4 23 10 -4 9 -3 14 2 11 5 -3 12 -1 16 4 3 6 12
8 19 5 8 -3 17 0 22 7 5 8 3 10 -6 4 -9 -5 -11 -4 -6 4 4 6 11 9 16 6 5 -3 11
-1 15 4 3 6 13 7 22 4 9 -4 19 1 25 10 5 10 14 17 19 17 6 0 7 -6 3 -12 -5 -8
0 -7 11 2 10 8 20 14 22 12 3 -2 8 0 11 4 4 4 2 4 -5 0 -6 -3 -14 -3 -17 2 -8
13 27 11 43 -2 11 -8 13 -8 7 2 -4 6 -5 12 -2 12 3 0 10 -9 15 -19 9 -16 8
-18 -12 -14 -17 4 -19 3 -7 -6 8 -6 15 -23 15 -38 0 -15 4 -34 9 -41 7 -11 4
-12 -11 -4 -15 9 -20 8 -20 -3 0 -8 4 -12 9 -9 4 3 8 0 8 -5 0 -6 -4 -11 -8
-11 -4 0 -8 -11 -8 -24 0 -14 3 -23 7 -20 4 2 9 -3 13 -11 3 -8 0 -17 -6 -21
-7 -4 -8 -3 -4 4 4 7 2 12 -4 12 -9 0 -9 -12 0 -55 5 -21 0 -36 -10 -30 -6 3
-7 -1 -4 -9 3 -9 10 -14 14 -11 12 8 4 -54 -10 -70 -7 -9 -10 -18 -6 -22 3 -3
6 -1 6 5 0 7 5 12 10 12 7 0 7 -7 0 -20 -6 -11 -15 -18 -21 -15 -15 10 -10 -2
8 -16 14 -12 16 -12 8 0 -5 10 -4 12 4 7 6 -4 9 -12 5 -17 -3 -5 -10 -7 -15
-4 -5 4 -9 2 -9 -4 0 -5 8 -12 18 -14 16 -4 16 -5 0 -6 -19 -1 -22 -10 -12
-35 3 -9 11 -13 17 -9 6 3 7 1 3 -6 -4 -6 -11 -9 -16 -6 -5 3 -11 1 -15 -5 -6
-9 8 -14 28 -11 5 1 6 -3 2 -9 -4 -6 -16 -8 -28 -5 -12 2 -16 2 -9 -1 6 -3 9
-11 6 -16 -4 -6 -2 -8 4 -4 6 3 14 1 18 -5 5 -8 3 -9 -6 -4 -10 6 -12 4 -6
-10 5 -14 4 -16 -7 -7 -11 9 -13 6 -9 -20 3 -20 1 -29 -6 -24 -8 5 -10 -21 -2
-31 3 -4 7 -20 9 -34 0 -5 6 -7 12 -3 8 4 8 0 0 -15 -7 -12 -9 -26 -6 -31 4
-6 -1 -7 -12 -3 -15 6 -16 4 -5 -9 10 -13 10 -18 1 -24 -8 -5 -9 -3 -4 6 6 9
4 11 -4 5 -9 -5 -9 -11 -3 -17 6 -6 8 -17 5 -26 -4 -10 -2 -13 5 -8 8 5 10 2
6 -8 -3 -9 -9 -14 -13 -12 -9 6 -7 -56 2 -71 5 -7 4 -13 -2 -13 -6 0 -7 -7 -4
-17 4 -11 3 -14 -5 -9 -8 5 -10 2 -6 -8 3 -9 11 -13 16 -10 7 5 7 1 0 -12 -8
-14 -6 -21 6 -31 15 -10 13 -11 -13 -7 -26 4 -28 3 -14 -8 23 -18 32 -49 14
-41 -8 3 -12 10 -8 16 4 6 1 7 -6 3 -9 -6 -8 -12 4 -26 16 -18 16 -18 -4 -13
-12 3 -27 0 -35 -6 -10 -8 -16 -9 -21 -1 -3 5 -15 10 -26 10 -11 0 -18 -4 -15
-8 2 -4 -4 -8 -14 -8 -10 0 -16 4 -14 8 8 13 -11 9 -25 -4 -11 -11 -12 -10 -6
2 8 13 7 13 -8 1 -9 -7 -17 -9 -17 -4 0 5 -21 9 -47 8 -27 -1 -56 3 -67 8 -13
6 -16 6 -12 -2 4 -6 2 -11 -4 -11 -6 0 -8 -4 -5 -10 3 -5 2 -10 -4 -10 -11 0
-9 -26 4 -37 4 -4 5 -3 1 4 -3 6 -2 14 3 17 5 4 8 -2 6 -11 -1 -11 -10 -17
-21 -16 -11 1 -13 0 -6 -3 6 -3 9 -11 6 -16 -4 -7 -2 -8 4 -4 7 4 12 1 12 -9
0 -10 -5 -14 -12 -9 -10 5 -10 4 -1 -6 6 -7 9 -19 6 -28 -5 -12 -1 -14 16 -9
18 4 20 3 11 -8 -13 -16 -5 -35 13 -35 8 0 8 3 -1 9 -11 7 -11 9 1 14 16 6 17
-9 4 -30 -7 -12 -2 -15 19 -12 4 0 11 -5 15 -13 7 -11 9 -11 9 1 0 11 3 11 15
1 11 -9 15 -9 15 -1 0 7 5 9 10 6 6 -4 7 -12 3 -18 -4 -7 0 -6 10 2 9 7 17 10
17 5 0 -5 5 -2 10 6 7 11 10 12 10 2 0 -8 6 -12 13 -9 6 2 22 0 35 -4 15 -6
21 -5 17 1 -10 17 7 11 22 -7 14 -17 14 -17 9 1 -5 15 -4 17 7 8 8 -7 17 -8
22 -4 4 4 2 -3 -4 -15 -7 -13 -8 -23 -2 -23 5 0 11 6 14 13 3 6 4 2 4 -10 -1
-18 -6 -22 -22 -18 -11 3 -15 2 -8 -1 7 -3 9 -12 6 -20 -3 -9 0 -13 8 -11 8 2
11 2 7 0 -5 -3 -8 -11 -8 -19 0 -9 -4 -13 -8 -10 -5 3 -9 -1 -9 -9 0 -8 4 -12
9 -9 4 3 8 -2 8 -11 0 -9 -4 -14 -8 -11 -5 3 -9 -1 -9 -9 0 -8 4 -12 9 -9 4 3
8 -2 8 -10 0 -10 -6 -13 -17 -10 -15 5 -15 4 -4 -4 9 -6 15 -28 15 -50 1 -32
-2 -38 -12 -30 -9 8 -11 7 -6 -6 3 -9 10 -16 16 -16 5 0 6 -5 3 -10 -5 -8 -12
-7 -23 2 -15 11 -15 11 -4 -4 10 -13 10 -17 0 -22 -7 -3 -2 -3 12 1 22 5 23 4
11 -10 -7 -9 -18 -14 -24 -10 -6 3 -7 1 -3 -6 4 -6 11 -9 15 -7 7 5 11 -9 12
-48 0 -25 -8 -31 -25 -17 -10 8 -16 9 -21 1 -4 -6 -3 -10 2 -9 19 3 27 -2 15
-10 -11 -7 -10 -9 3 -14 9 -4 14 -3 11 1 -3 5 1 9 9 9 11 0 12 -4 4 -13 -7 -8
-6 -14 3 -17 10 -4 10 -6 1 -6 -7 -1 -13 -10 -13 -22 0 -13 4 -18 12 -13 7 4
8 3 4 -4 -4 -7 -15 -12 -24 -12 -12 0 -13 -3 -4 -12 16 -16 16 -62 0 -52 -7 4
-8 3 -4 -5 6 -9 11 -9 21 -1 10 8 15 8 21 -1 4 -7 3 -9 -3 -6 -6 4 -14 0 -17
-9 -3 -8 -11 -12 -17 -8 -8 4 -9 3 -5 -4 4 -6 14 -8 24 -5 14 5 15 3 4 -8 -13
-14 -17 -33 -4 -25 4 2 8 -4 8 -14 0 -18 -2 -18 -18 -3 -16 14 -17 14 -5 -10
6 -14 15 -23 19 -21 3 2 9 0 12 -5 4 -5 1 -13 -5 -17 -8 -5 -9 -3 -4 6 5 8 4
11 -3 7 -5 -4 -9 -15 -7 -25 2 -9 4 -21 4 -25 1 -5 5 -6 9 -3 5 3 9 -1 9 -9 0
-8 -4 -12 -8 -10 -4 3 -9 -2 -13 -10 -3 -9 6 -21 24 -32 17 -9 30 -25 30 -34
0 -31 11 -48 28 -42 10 3 13 1 7 -4 -17 -13 -11 -38 8 -35 9 2 17 -3 17 -10 0
-9 3 -9 10 2 9 13 10 13 10 0 0 -9 3 -11 8 -5 10 14 52 14 52 1 0 -6 5 -4 10
4 9 13 10 13 10 0 0 -13 1 -13 10 0 8 13 10 13 10 1 0 -11 4 -10 13 4 10 13
16 15 21 6 6 -9 14 -8 31 3 15 10 26 12 30 6 4 -6 13 -7 23 -1 11 6 24 5 36
-1 14 -8 17 -7 12 1 -5 8 0 10 18 7 17 -3 29 1 36 12 6 12 9 13 10 3 0 -11 3
-11 17 0 15 12 16 12 8 -1 -8 -13 -7 -13 8 -1 9 7 17 10 17 5 0 -5 5 -2 10 6
5 8 10 10 10 3 0 -6 9 -9 20 -6 11 3 17 10 13 17 -4 6 2 4 12 -4 15 -12 17
-12 10 -1 -6 11 -4 13 8 8 10 -4 17 -2 17 5 0 6 6 5 17 -3 9 -8 14 -9 10 -2
-10 16 14 22 38 10 19 -10 19 -9 5 8 -11 14 -11 17 -1 11 8 -5 17 -3 22 5 7
11 9 11 9 1 0 -10 4 -9 16 2 8 9 21 13 27 9 7 -3 9 -2 4 2 -4 5 0 16 9 26 10
11 12 19 4 24 -5 3 -7 11 -4 17 4 7 2 8 -5 4 -9 -6 -9 -11 0 -22 6 -8 7 -14 3
-14 -5 0 -15 9 -22 21 -8 12 -9 18 -3 14 18 -10 12 4 -10 26 -16 16 -18 23 -8
35 9 11 9 14 -1 14 -8 0 -10 3 -7 7 4 3 2 12 -4 20 -9 9 -8 17 0 27 9 11 8 17
-4 29 -16 16 -21 32 -7 23 4 -2 8 4 8 14 0 10 -4 16 -8 14 -4 -3 -8 0 -8 6 0
6 -4 9 -8 6 -4 -2 -8 4 -8 14 0 15 3 17 15 7 12 -10 13 -9 2 11 -16 31 -22 64
-10 57 5 -4 9 -1 9 4 0 6 -8 11 -17 12 -15 0 -15 2 2 9 11 5 15 9 10 9 -16 1
-18 61 -3 79 7 9 9 13 3 10 -5 -3 -16 0 -23 8 -9 10 -9 14 -1 14 8 0 8 5 -2
18 -11 14 -11 15 1 4 23 -20 32 -14 15 12 -11 16 -13 26 -5 31 6 3 8 11 5 16
-4 5 0 9 7 9 7 1 2 7 -12 15 -14 8 -19 14 -12 15 6 0 12 5 12 11 0 5 -4 8 -8
5 -4 -2 -13 4 -20 15 -7 10 -8 19 -3 19 5 0 11 -6 14 -12 3 -10 8 -10 18 1 12
12 12 13 0 6 -11 -6 -13 -4 -7 11 14 35 16 55 4 48 -8 -5 -9 -1 -4 12 12 31
12 36 -4 41 -13 4 -13 3 0 -6 8 -6 10 -11 4 -11 -6 0 -18 8 -25 17 -12 14 -12
16 0 8 11 -6 13 -4 8 9 -6 14 -4 15 16 5 21 -12 21 -11 7 6 -12 15 -12 17 -1
10 11 -6 13 -4 7 10 -5 15 -4 16 9 5 10 -8 15 -9 15 -1 0 6 5 11 11 11 5 0 8
-4 5 -8 -2 -4 4 -8 14 -9 11 -1 22 2 25 7 3 5 12 7 19 4 8 -3 17 -1 21 5 4 8
12 8 26 1 11 -7 19 -7 19 -1 0 10 19 9 38 -2 6 -5 12 -4 12 1 0 5 18 9 40 10
52 2 64 5 72 17 5 6 8 5 8 -4 0 -11 3 -11 17 0 15 12 16 12 8 -1 -7 -12 -6
-13 6 -3 9 7 25 11 37 8 12 -2 22 1 22 6 0 6 8 6 20 -1 11 -6 20 -7 19 -3 -3
20 2 27 11 13 9 -13 11 -13 20 0 9 13 10 13 10 0 0 -13 1 -13 11 0 8 11 12 12
16 3 2 -7 9 -13 14 -13 6 0 7 5 4 10 -3 6 -2 10 4 10 5 0 13 -9 16 -20 3 -11
11 -20 17 -20 6 0 6 -6 -2 -15 -7 -9 -10 -18 -6 -22 3 -3 6 -1 6 5 0 16 25 15
39 -1 8 -10 7 -17 -2 -27 -9 -10 -9 -11 1 -6 8 5 12 0 13 -16 0 -13 3 -17 6
-11 7 19 33 -10 33 -37 0 -12 4 -18 10 -15 5 3 10 1 10 -4 0 -6 7 -11 15 -11
16 0 16 -20 0 -32 -6 -4 -2 -8 8 -8 9 0 17 -6 17 -12 0 -9 4 -8 10 2 5 8 10
10 10 4 0 -5 -6 -16 -12 -23 -7 -7 -8 -12 -3 -11 6 2 17 2 25 1 13 -1 13 -2 0
-11 -10 -6 -11 -10 -2 -10 6 0 12 -7 12 -16 0 -8 4 -13 9 -10 8 5 26 -49 22
-67 -1 -5 3 -6 9 -2 6 3 7 11 4 17 -4 7 -2 8 5 4 6 -4 9 -12 6 -17 -6 -9 9
-14 30 -9 6 1 7 -2 3 -6 -4 -4 -2 -14 5 -22 9 -13 9 -14 0 -8 -9 4 -13 1 -13
-9 0 -11 5 -15 14 -12 11 4 13 -1 10 -19 -2 -13 0 -24 6 -24 6 0 8 -4 5 -10
-3 -6 1 -7 9 -4 12 4 16 0 16 -16 0 -13 -4 -19 -12 -14 -7 4 -8 3 -4 -5 6 -9
11 -9 22 0 11 9 14 9 14 0 0 -7 4 -9 10 -6 6 3 7 -1 3 -10 -5 -13 -7 -14 -14
-3 -5 7 -9 8 -9 2 0 -19 13 -24 28 -11 13 10 14 9 3 -10 -10 -19 -9 -22 4 -17
9 4 15 3 14 -2 -4 -21 2 -35 11 -29 9 6 14 -10 13 -42 0 -7 4 -11 11 -10 6 1
10 -3 9 -9 -1 -6 8 -10 20 -9 18 2 23 -2 22 -23 0 -15 5 -27 10 -28 6 0 18 -4
28 -9 14 -6 15 -10 6 -21 -10 -13 -6 -18 14 -15 4 0 7 -3 7 -9 0 -5 5 -10 11
-10 5 0 7 5 3 12 -4 7 -3 8 5 4 8 -5 9 -12 2 -19 -6 -8 -4 -17 7 -27 14 -13
15 -12 9 3 -3 9 -2 17 3 17 6 0 10 -7 10 -15 0 -8 4 -15 9 -15 5 0 11 -9 14
-20 3 -11 12 -20 21 -20 9 0 16 -4 16 -10 0 -5 7 -10 16 -10 18 0 46 -25 37
-34 -4 -3 2 -6 13 -6 11 0 25 -9 32 -20 7 -11 17 -20 24 -20 7 0 3 7 -8 15
-18 14 -18 14 4 8 12 -3 22 -11 22 -19 0 -8 6 -11 17 -7 12 5 15 2 10 -10 -4
-11 -2 -14 9 -10 7 3 14 0 14 -7 0 -6 5 -8 11 -5 5 4 20 -1 32 -12 19 -16 20
-16 8 0 -12 15 -12 17 3 11 9 -3 16 -10 16 -14 0 -7 57 -24 73 -21 4 0 7 -3 7
-8 0 -4 14 -7 30 -5 19 2 30 -1 30 -9 0 -8 4 -7 10 3 9 13 10 13 10 0 0 -13 1
-13 10 0 8 13 10 13 10 -2 0 -14 5 -15 30 -8 19 5 28 5 25 -1 -4 -5 14 -8 44
-6 27 2 56 0 62 -4 7 -4 18 -5 24 -1 5 3 39 7 75 7 36 0 71 4 77 8 21 13 83
16 83 3 0 -6 5 -4 10 4 5 8 10 11 10 7 0 -4 9 -3 20 3 15 8 20 8 20 -2 0 -10
2 -10 9 1 6 10 10 10 16 1 14 -23 25 13 25 86 0 76 -5 90 -27 72 -11 -8 -12
-7 -7 5 4 12 1 14 -15 10 -16 -4 -21 -1 -21 13 0 11 -4 15 -8 9 -10 -14 -32
-17 -32 -5 0 6 -7 10 -16 10 -9 0 -12 5 -8 13 5 7 1 7 -12 -3 -10 -8 -16 -10
-12 -6 4 5 -2 17 -14 27 -27 24 -34 24 -17 2 7 -10 2 -8 -12 4 -20 18 -28 20
-38 10 -10 -9 -11 -9 -6 4 3 9 -1 22 -10 29 -10 8 -15 9 -15 1 0 -6 -5 -11
-11 -11 -5 0 -8 4 -5 9 5 8 -30 25 -47 22 -4 -1 -3 8 4 20 6 12 7 19 1 16 -5
-4 -18 0 -28 8 -10 8 -27 15 -37 15 -10 0 -16 4 -12 9 3 6 -3 8 -14 6 -14 -2
-18 1 -14 11 3 9 -2 14 -16 14 -12 0 -21 6 -21 14 0 8 -5 18 -12 22 -7 5 -8 3
-3 -6 5 -8 -6 -4 -23 8 -17 13 -35 28 -39 35 -5 8 -2 8 9 -1 13 -10 18 -10 24
-1 4 8 3 9 -4 5 -7 -4 -12 -2 -12 5 0 6 -8 9 -20 6 -11 -3 -18 -1 -14 4 3 5 1
9 -5 9 -5 0 -8 9 -6 20 2 11 0 18 -4 15 -5 -3 -11 2 -15 10 -3 9 -12 12 -22 8
-14 -5 -16 -3 -11 12 6 15 5 16 -8 5 -11 -9 -15 -9 -15 -1 0 7 -5 9 -12 5 -7
-4 -8 -3 -4 5 4 6 13 8 19 5 7 -4 3 2 -8 13 -13 14 -22 16 -27 9 -6 -8 -8 -8
-8 1 0 6 5 15 10 18 16 10 -8 35 -32 35 -15 0 -19 5 -16 18 4 15 0 18 -18 16
-16 -1 -22 2 -17 9 12 19 12 34 -1 35 -41 4 -51 10 -48 31 2 11 -3 28 -10 36
-7 8 -19 21 -26 29 -7 9 -19 13 -29 9 -15 -6 -16 -5 -3 9 8 9 19 13 24 10 5
-3 6 0 2 6 -4 6 -13 9 -22 5 -9 -3 -14 0 -12 8 2 8 -2 13 -7 12 -6 -1 -12 7
-13 18 -1 10 -3 28 -4 38 -1 11 -6 17 -10 15 -4 -3 -8 0 -8 6 0 7 -7 10 -15 7
-8 -4 -17 -1 -21 5 -4 7 -3 8 4 4 7 -4 12 -2 12 3 0 10 -14 15 -33 12 -4 0 -6
2 -6 6 4 22 -2 33 -13 27 -10 -6 -10 -5 -1 7 10 13 9 20 -8 37 -11 12 -27 22
-35 22 -8 0 -12 5 -9 10 3 6 0 10 -7 10 -10 0 -9 3 2 11 12 9 11 10 -8 6 -14
-3 -20 -1 -15 5 3 6 -2 17 -12 25 -18 13 -18 13 1 14 17 0 17 1 -3 9 -22 9
-23 40 -1 40 6 0 5 -8 -3 -17 -7 -10 0 -5 15 10 16 16 34 26 42 23 7 -3 16 -1
19 5 4 5 10 7 15 4 4 -3 11 2 14 11 4 10 14 14 26 11 11 -3 20 0 20 5 0 6 8 4
17 -3 11 -10 14 -10 9 -1 -4 7 -2 12 4 12 6 0 8 5 4 13 -5 7 0 6 11 -3 10 -8
16 -10 12 -3 -11 17 11 27 29 12 8 -7 14 -8 13 -3 -4 23 3 34 21 34 11 0 20 5
20 11 0 8 6 7 17 -2 12 -10 15 -11 9 -1 -10 17 12 42 31 35 9 -4 21 0 27 8 6
8 18 14 26 14 8 0 14 6 12 13 -1 8 2 11 8 7 6 -3 22 3 36 14 15 11 31 18 37
14 6 -3 7 -1 3 6 -4 6 -12 8 -18 5 -7 -4 -8 -2 -4 5 4 6 11 9 15 7 4 -3 14 4
21 15 16 21 36 27 23 7 -4 -7 7 -2 24 12 21 17 27 29 21 37 -10 13 9 13 30 -1
11 -7 12 -4 3 12 -10 18 -8 20 8 17 11 -2 26 4 33 13 11 15 11 15 -3 4 -14
-10 -18 -10 -23 3 -3 9 -2 14 3 11 4 -3 17 2 27 10 10 9 13 12 5 8 -10 -5 -12
-3 -7 5 5 7 14 10 22 7 8 -3 11 0 7 10 -3 9 1 14 13 14 16 0 17 2 4 10 -13 8
-13 10 1 10 9 0 24 9 34 20 10 11 13 20 7 20 -6 0 -12 -6 -15 -12 -2 -7 -4 1
-4 17 0 17 2 24 4 18 7 -18 23 -16 23 3 0 9 5 12 13 8 7 -5 6 0 -3 11 -13 17
-13 18 0 13 11 -4 16 0 17 13 1 13 -3 16 -15 12 -14 -6 -15 -5 -2 9 8 8 24 13
35 11 11 -2 14 -1 8 3 -7 3 -13 10 -13 15 0 6 6 7 13 3 6 -4 3 3 -8 16 -11 13
-15 21 -9 17 6 -3 20 1 30 9 10 9 14 13 7 10 -6 -4 -14 -2 -18 4 -3 5 -1 10 6
10 8 0 8 4 -1 15 -10 12 -9 15 4 15 10 0 14 5 11 10 -4 6 -11 7 -17 4 -6 -4
-5 3 2 16 10 18 14 20 21 9 5 -8 9 -9 9 -3 0 6 -3 14 -7 18 -5 4 -9 20 -9 34
-3 42 -3 44 -16 36 -8 -5 -8 -2 1 10 11 13 11 16 2 14 -8 -2 -15 5 -16 15 -2
9 1 15 6 11 5 -3 7 -10 4 -15 -3 -5 1 -6 10 -3 12 5 13 10 4 20 -6 7 -8 18 -4
24 3 5 0 13 -9 16 -8 3 -17 13 -20 21 -5 13 -4 14 9 3 9 -7 18 -11 20 -8 3 3
-6 11 -20 18 -14 7 -25 17 -25 22 0 5 -5 6 -12 2 -7 -4 -8 -3 -4 5 6 9 11 9
24 0 10 -7 5 0 -10 15 -30 29 -38 47 -11 25 15 -13 15 -12 3 8 -11 17 -17 19
-27 11 -10 -8 -12 -7 -7 6 3 9 1 16 -5 16 -6 0 -11 7 -11 15 0 8 5 15 12 15 6
0 8 3 5 6 -4 4 -13 1 -22 -6 -11 -9 -15 -9 -15 -1 0 7 -4 9 -10 6 -6 -4 -7 1
-3 11 4 12 3 15 -5 10 -8 -5 -10 -1 -5 10 4 12 3 15 -5 10 -7 -4 -12 -2 -12 4
0 6 -5 8 -12 4 -9 -5 -9 -2 1 9 7 9 11 18 7 18 -3 1 -10 3 -16 4 -5 1 -15 3
-21 4 -5 0 -7 6 -4 11 3 6 -3 10 -14 10 -12 0 -21 5 -21 11 0 5 5 7 12 3 6 -4
8 -3 4 4 -3 6 -15 9 -26 7 -11 -2 -20 1 -20 6 0 6 -4 7 -10 4 -6 -4 -7 1 -3
12 3 10 3 15 -2 11 -4 -4 -14 0 -22 8 -8 8 -19 12 -24 9 -5 -4 -9 1 -9 11 0
14 -3 14 -15 4 -9 -7 -18 -10 -22 -6 -3 3 -1 6 5 6 7 0 5 8 -5 19 -12 15 -21
17 -35 10 -14 -7 -16 -6 -12 5 4 11 0 13 -15 9 -16 -4 -21 -1 -21 13 0 16 -2
17 -10 4 -6 -10 -10 -11 -10 -2 0 6 -9 12 -20 12 -11 0 -20 5 -20 10 0 6 -9
10 -21 10 -13 0 -18 4 -13 13 5 9 4 9 -6 0 -10 -9 -16 -8 -27 3 -8 8 -19 12
-24 9 -5 -4 -9 -1 -9 6 0 7 -3 9 -7 6 -3 -4 -12 -2 -20 4 -9 9 -13 8 -13 0 0
-6 -4 -11 -10 -11 -5 0 -7 7 -3 15 4 13 0 15 -22 11 -23 -4 -25 -3 -13 11 12
15 11 15 -9 4 -15 -8 -23 -8 -23 -1 0 6 -10 8 -24 4 -17 -4 -27 0 -35 13 -9
16 -12 16 -21 3 -5 -8 -10 -10 -10 -4 0 15 -50 25 -50 10 0 -6 -7 -2 -15 8
-11 14 -15 16 -15 5 0 -12 -2 -12 -10 1 -5 8 -10 11 -10 6 0 -5 -7 -3 -15 4
-12 10 -15 10 -15 0 0 -9 -7 -7 -22 6 -12 10 -18 13 -14 7 9 -16 -10 -18 -19
-3 -5 8 -11 8 -19 1 -8 -7 -16 -7 -22 -1 -5 5 -34 10 -64 12 -30 2 -58 7 -62
12 -4 6 -12 5 -21 -2 -11 -10 -17 -9 -26 1 -6 8 -7 18 -3 22 4 5 1 5 -6 1 -7
-4 -10 -12 -6 -17 3 -6 -6 -8 -22 -5 -15 3 -31 11 -36 18 -7 12 -12 3 -9 -16
1 -5 -5 -4 -13 4 -9 7 -16 9 -16 5 0 -4 -8 -1 -17 6 -11 10 -14 10 -9 2 4 -7
2 -13 -3 -13 -6 0 -11 4 -11 8 0 7 -34 8 -50 2 -3 -1 -9 -1 -15 0 -32 7 -112
6 -122 -3 -8 -5 -13 -6 -13 0 0 5 -19 8 -42 7 -24 -1 -43 -2 -43 -3 0 -2 -10
-4 -22 -5 -13 -2 -23 0 -23 4 0 3 -9 6 -20 6 -11 0 -20 -5 -20 -11 0 -5 -5 -3
-11 5 -8 12 -12 12 -16 2 -4 -10 -9 -9 -20 5 -8 10 -12 13 -9 7 3 -7 -1 -15
-10 -18 -8 -3 -12 -2 -9 4 7 12 -19 53 -28 43 -4 -3 1 -11 10 -18 13 -9 13
-14 3 -20 -8 -5 -11 -4 -7 2 4 6 0 13 -8 17 -9 3 -12 12 -8 22 5 13 3 16 -10
11 -12 -4 -17 -1 -18 11 0 10 -3 12 -6 4 -2 -6 -8 -10 -12 -8 -4 3 -26 7 -50
10 -35 4 -41 2 -37 -10z m189 -368 c-4 -6 0 -5 9 2 11 9 30 11 53 8 27 -5 34
-3 29 6 -4 7 2 5 13 -5 21 -18 22 -18 32 0 6 10 11 13 11 7 0 -7 7 -15 16 -18
8 -3 12 -2 9 4 -5 9 75 4 84 -6 2 -2 10 1 18 7 7 7 13 7 13 2 0 -6 15 -9 33
-8 37 2 59 -4 52 -14 -2 -4 2 -8 10 -8 8 0 12 4 9 9 -6 10 -1 10 20 2 9 -3 13
-11 9 -18 -5 -7 -2 -7 8 1 9 8 20 9 29 3 22 -14 30 -12 24 8 -4 13 -2 12 8 -3
10 -15 24 -20 55 -20 22 0 39 -3 37 -7 -2 -4 0 -9 6 -13 5 -3 10 -1 10 5 0 7
6 6 15 -3 8 -9 24 -13 35 -10 12 3 20 0 20 -6 0 -7 5 -9 10 -6 6 3 10 2 10 -3
0 -6 9 -8 20 -5 12 3 20 0 20 -7 0 -10 3 -10 15 0 13 11 14 10 10 -2 -4 -9 1
-18 10 -22 10 -3 14 -2 9 5 -4 8 0 7 15 0 11 -7 21 -17 21 -24 0 -7 4 -6 10 3
6 10 10 11 10 3 0 -7 8 -13 19 -13 10 0 25 -8 32 -17 13 -17 13 -17 -6 -3 -19
14 -19 14 -6 -3 11 -14 17 -15 28 -5 11 9 13 8 11 -2 -2 -8 3 -14 10 -15 8 0
19 -8 26 -17 7 -10 17 -14 21 -10 5 4 5 -2 1 -12 -5 -14 -3 -16 6 -8 9 7 17 5
28 -6 13 -14 12 -15 -3 -9 -24 9 -21 -6 4 -21 12 -8 18 -9 14 -3 -3 6 -1 11 4
11 6 0 11 -7 11 -16 0 -8 4 -13 9 -10 5 3 11 -1 14 -9 4 -10 1 -12 -11 -9 -9
3 -7 -1 6 -8 12 -8 19 -17 16 -21 -4 -4 2 -7 14 -7 12 0 22 -4 22 -10 0 -5 -8
-7 -17 -4 -15 5 -16 4 -3 -5 8 -6 11 -11 6 -11 -5 0 -3 -6 3 -13 6 -8 7 -18 3
-22 -4 -5 -1 -5 6 -1 8 5 11 0 8 -16 -2 -13 2 -29 8 -37 9 -12 8 -13 -7 -8
-11 4 -16 3 -12 -4 4 -5 16 -9 27 -7 13 2 22 -3 23 -14 2 -11 -2 -15 -12 -11
-13 5 -12 2 2 -21 17 -25 17 -26 0 -20 -16 7 -17 6 -1 -18 16 -24 16 -26 0
-24 -20 1 -29 -35 -11 -46 9 -6 8 -8 -3 -8 -13 0 -13 -1 0 -10 13 -8 12 -10
-4 -10 -15 0 -16 -3 -6 -15 6 -8 10 -20 7 -27 -4 -8 -6 -7 -6 5 -1 17 -12 22
-24 10 -4 -3 -2 -12 4 -20 9 -10 8 -13 -1 -13 -10 0 -10 -3 -1 -14 9 -11 9
-16 0 -21 -6 -4 -15 -1 -20 6 -5 8 -9 9 -9 3 0 -5 6 -16 13 -23 10 -11 10 -13
0 -7 -8 5 -13 1 -13 -9 0 -10 -5 -13 -12 -9 -8 5 -9 2 -5 -10 4 -10 3 -15 -3
-11 -6 3 -10 1 -10 -5 0 -6 -5 -8 -12 -4 -7 5 -9 2 -5 -9 4 -12 2 -14 -11 -10
-14 6 -15 4 -5 -8 8 -10 9 -19 1 -29 -8 -12 -9 -12 -4 2 4 13 0 17 -14 15 -11
-2 -23 -7 -27 -12 -5 -4 -2 -5 5 -1 18 10 15 -2 -5 -23 -10 -10 -30 -21 -45
-25 -16 -3 -28 -11 -28 -17 0 -7 6 -6 18 2 15 13 16 12 4 -3 -8 -10 -17 -17
-20 -16 -23 3 -42 -3 -37 -12 3 -5 1 -10 -5 -10 -6 0 -9 -4 -6 -9 3 -5 0 -9
-7 -8 -34 1 -58 -4 -53 -11 3 -5 -1 -9 -9 -10 -8 -1 -22 -3 -30 -4 -9 -1 -14
-7 -11 -13 2 -6 -2 -12 -9 -12 -7 0 -11 7 -8 16 3 9 -2 6 -12 -7 -13 -18 -20
-21 -31 -11 -12 10 -13 9 -7 -7 6 -17 5 -18 -12 -4 -11 9 -16 10 -11 3 6 -12
-5 -18 -26 -14 -5 0 -8 -3 -8 -9 0 -5 -6 -7 -13 -4 -8 3 -20 -2 -27 -11 -10
-12 -16 -13 -26 -4 -11 9 -14 8 -14 0 0 -7 -4 -9 -10 -6 -5 3 -10 0 -10 -7 0
-9 -3 -9 -10 2 -8 12 -10 12 -10 1 0 -8 -7 -11 -20 -8 -11 3 -20 1 -20 -4 0
-4 -7 -5 -17 -2 -11 4 -14 3 -9 -5 5 -8 0 -12 -14 -12 -14 0 -19 4 -15 13 4 6
0 4 -8 -5 -11 -14 -16 -15 -27 -5 -10 10 -11 9 -5 -2 6 -11 4 -13 -8 -8 -10 4
-17 1 -17 -6 0 -7 -3 -8 -8 -2 -10 15 -35 18 -26 4 5 -9 2 -10 -9 -6 -10 3
-17 2 -17 -4 0 -6 -6 -6 -18 0 -13 7 -25 6 -38 -2 -22 -14 -43 -15 -61 -4 -8
5 -13 3 -13 -3 0 -7 -6 -10 -14 -7 -7 3 -18 1 -23 -4 -6 -6 -20 -6 -38 1 -24
9 -26 8 -16 -3 9 -12 7 -14 -13 -12 -14 2 -29 6 -35 9 -5 4 -13 1 -17 -5 -4
-8 -9 -7 -15 2 -7 11 -9 11 -9 1 0 -17 -67 -13 -82 5 -6 7 -7 13 -3 13 4 0 2
6 -4 14 -10 11 -8 16 8 21 22 7 35 32 20 41 -6 4 -6 11 2 20 10 12 9 13 -4 9
-18 -8 -32 11 -16 21 8 4 9 3 5 -4 -11 -18 -1 -14 19 8 17 19 17 19 -4 15 -11
-2 -21 0 -21 6 0 5 6 9 13 9 8 0 7 3 -3 9 -8 6 -18 7 -24 4 -5 -3 -6 -1 -2 5
4 6 13 9 21 5 10 -3 15 1 15 12 0 9 -4 14 -8 11 -5 -3 -9 1 -9 9 0 8 4 12 8
10 19 -12 16 27 -4 46 -12 12 -16 19 -9 15 7 -4 19 -3 27 4 11 9 11 17 -1 47
-14 33 -14 35 2 29 14 -5 15 -4 4 9 -7 8 -17 12 -24 8 -7 -4 -6 -1 1 9 7 8 10
18 6 22 -4 4 1 4 11 0 16 -6 17 -5 5 14 -7 11 -17 18 -23 15 -5 -3 -6 -1 -2 6
4 6 12 9 17 6 13 -9 11 9 -3 24 -11 11 -10 13 2 7 8 -4 6 0 -4 8 -12 10 -15
16 -7 16 8 0 11 6 7 16 -3 8 -2 13 3 10 13 -8 24 25 12 37 -5 5 -7 16 -4 25 5
11 3 13 -8 7 -8 -5 -7 -1 4 12 9 11 17 24 17 29 0 5 -4 3 -9 -4 -6 -10 -10 -7
-13 12 -3 15 -1 29 5 33 6 3 7 1 3 -5 -4 -7 -3 -12 2 -12 5 0 9 13 8 29 0 16
-4 27 -8 25 -3 -2 -9 0 -12 5 -4 5 -2 13 4 16 8 5 7 12 -2 23 -7 9 -8 13 -2 9
7 -4 18 1 25 10 10 12 10 14 2 9 -8 -4 -13 -1 -13 9 0 9 4 14 9 11 4 -3 7 8 5
25 -3 21 0 28 9 23 6 -3 0 5 -15 20 -33 32 -36 41 -7 26 11 -7 23 -9 27 -6 3
3 0 6 -7 6 -7 0 -9 5 -5 12 4 6 3 8 -3 5 -7 -4 -9 8 -8 34 1 22 -2 42 -6 45
-5 3 -9 11 -9 17 0 7 4 6 10 -3 8 -12 10 -11 10 8 0 12 -4 22 -9 22 -5 0 -8
11 -7 24 0 13 5 22 9 19 5 -3 6 -12 3 -20 -4 -9 -2 -11 6 -7 6 4 8 3 4 -4 -3
-6 -2 -13 3 -16 5 -4 7 7 5 24 -4 21 -1 32 10 36 9 3 13 10 10 16 -3 5 -12 1
-18 -8 -10 -13 -15 -14 -21 -4 -5 9 -4 11 3 6 7 -4 12 -3 12 3 0 5 -6 12 -12
14 -8 4 -7 6 4 6 9 1 25 11 35 24 10 13 24 22 32 19 8 -3 11 0 7 7 -5 7 -1 9
8 5 9 -3 13 -11 9 -18z m-61 -8 c-14 -14 -44 -20 -36 -7 3 5 9 7 14 4 4 -3 11
2 14 11 4 9 9 14 13 10 4 -3 1 -12 -5 -18z m-592 -262 c0 -2 -8 -10 -17 -17
-16 -13 -17 -12 -4 4 13 16 21 21 21 13z m555 -46 c-1 -11 -8 -26 -15 -33 -12
-10 -12 -9 -2 4 6 9 9 19 6 22 -3 3 -3 10 1 16 9 16 12 14 10 -9z m-1037 -104
c-2 -1 -12 -8 -23 -16 -18 -14 -19 -13 -8 1 7 9 10 19 6 23 -4 4 1 4 10 0 10
-3 17 -7 15 -8z m2272 -36 c0 -5 -4 -10 -9 -10 -6 0 -13 5 -16 10 -3 6 1 10 9
10 9 0 16 -4 16 -10z m680 -34 c0 -2 -7 -7 -16 -10 -8 -3 -12 -2 -9 4 6 10 25
14 25 6z m-680 -127 c0 -5 -4 -9 -8 -9 -5 0 -9 7 -9 15 0 8 4 12 9 9 4 -3 8
-9 8 -15z m-1240 1 c0 -5 -5 -10 -11 -10 -5 0 -7 5 -4 10 3 6 8 10 11 10 2 0
4 -4 4 -10z m-575 -160 c3 -5 0 -7 -9 -4 -11 4 -14 0 -11 -15 2 -11 -1 -24 -7
-27 -6 -4 -8 -2 -4 4 3 6 2 14 -4 17 -8 5 -7 11 1 21 13 16 25 18 34 4z m568
-85 c4 -8 1 -17 -5 -21 -7 -4 -8 -3 -4 4 4 8 0 12 -11 12 -15 0 -16 2 -3 10
19 12 17 13 23 -5z m-8 -65 c3 -6 -1 -7 -9 -4 -18 7 -21 14 -7 14 6 0 13 -4
16 -10z m1685 -24 c0 -2 -7 -9 -15 -16 -13 -11 -14 -10 -9 4 5 14 24 23 24 12z
m-1695 -146 c16 -17 16 -20 3 -15 -9 4 -19 13 -22 21 -7 19 -2 18 19 -6z
m1216 -327 c13 -16 12 -17 -3 -4 -10 7 -18 15 -18 17 0 8 8 3 21 -13z m79
-112 c0 -6 -4 -12 -8 -15 -5 -3 -9 1 -9 9 0 8 4 15 9 15 4 0 8 -4 8 -9z
m-1298 -18 c-10 -4 -9 -9 4 -24 17 -19 17 -20 -2 -13 -17 7 -18 6 -4 -12 14
-17 13 -18 -1 -7 -9 7 -15 23 -13 35 3 30 2 28 17 27 9 0 9 -2 -1 -6z m1383
-112 c3 -5 2 -12 -3 -15 -5 -3 -9 1 -9 9 0 17 3 19 12 6z m-530 -91 c-3 -5
-12 -10 -18 -10 -7 0 -6 4 3 10 19 12 23 12 15 0z m689 -88 c3 -5 -1 -9 -9 -9
-8 0 -15 4 -15 9 0 4 4 8 9 8 6 0 12 -4 15 -8z m-604 -52 c0 -5 -4 -10 -10
-10 -5 0 -10 5 -10 10 0 6 5 10 10 10 6 0 10 -4 10 -10z m700 -75 c0 -5 -5 -3
-10 5 -5 8 -10 20 -10 25 0 6 5 3 10 -5 5 -8 10 -19 10 -25z m-2282 -70 c-3
-3 -9 2 -12 12 -6 14 -5 15 5 6 7 -7 10 -15 7 -18z m1702 -45 c0 -5 -2 -10 -4
-10 -3 0 -8 5 -11 10 -3 6 -1 10 4 10 6 0 11 -4 11 -10z m-1005 -20 c3 -6 -1
-7 -9 -4 -18 7 -21 14 -7 14 6 0 13 -4 16 -10z m1819 -45 c11 -8 16 -15 10
-15 -5 0 -18 7 -28 15 -11 8 -16 15 -10 15 5 0 18 -7 28 -15z m-2490 -151 c6
-15 4 -15 -11 -3 -10 7 -20 15 -22 16 -2 2 3 3 11 3 9 0 19 -7 22 -16z"/>
<path d="M1736 2898 c3 -5 10 -6 15 -3 13 9 11 12 -6 12 -8 0 -12 -4 -9 -9z"/>
<path d="M1310 2745 c0 -7 30 -13 34 -7 3 4 -4 9 -15 9 -10 1 -19 0 -19 -2z"/>
<path d="M1295 2480 c-3 -6 1 -7 9 -4 18 7 21 14 7 14 -6 0 -13 -4 -16 -10z"/>
<path d="M2435 2140 c-3 -5 -1 -10 4 -10 6 0 11 5 11 10 0 6 -2 10 -4 10 -3 0
-8 -4 -11 -10z"/>
<path d="M2205 1930 c-3 -6 1 -7 9 -4 18 7 21 14 7 14 -6 0 -13 -4 -16 -10z"/>
<path d="M1270 1758 c0 -4 4 -8 9 -8 6 0 12 4 15 8 3 5 -1 9 -9 9 -8 0 -15 -4
-15 -9z"/>
<path d="M1275 1730 c3 -5 8 -10 11 -10 2 0 4 5 4 10 0 6 -5 10 -11 10 -5 0
-7 -4 -4 -10z"/>
<path d="M3090 2779 c0 -5 5 -7 10 -4 6 3 10 8 10 11 0 2 -4 4 -10 4 -5 0 -10
-5 -10 -11z"/>
<path d="M719 2748 c-6 -20 -6 -39 0 -42 4 -3 7 6 7 20 0 20 -4 32 -7 22z"/>
<path d="M175 2371 c-3 -5 -2 -12 3 -15 5 -3 9 1 9 9 0 17 -3 19 -12 6z"/>
<path d="M675 2280 c3 -5 8 -10 11 -10 2 0 4 5 4 10 0 6 -5 10 -11 10 -5 0 -7
-4 -4 -10z"/>
<path d="M676 2067 c3 -10 9 -15 12 -12 3 3 0 11 -7 18 -10 9 -11 8 -5 -6z"/>
<path d="M2725 1801 c-3 -5 -2 -12 3 -15 5 -3 9 1 9 9 0 17 -3 19 -12 6z"/>
<path d="M2510 1689 c0 -5 5 -7 10 -4 6 3 10 8 10 11 0 2 -4 4 -10 4 -5 0 -10
-5 -10 -11z"/>
<path d="M2525 1461 c-6 -11 13 -26 22 -17 4 3 1 6 -6 6 -7 0 -9 5 -6 10 3 6
4 10 1 10 -3 0 -7 -4 -11 -9z"/>
<path d="M2696 1192 c-3 -4 4 -9 15 -9 23 -2 25 3 4 10 -8 4 -16 3 -19 -1z"/>
<path d="M2133 1085 c0 -8 4 -12 9 -9 5 3 6 10 3 15 -9 13 -12 11 -12 -6z"/>
<path d="M585 1060 c-4 -6 -1 -9 7 -8 7 2 12 -3 10 -10 -1 -8 2 -11 8 -7 8 5
7 11 -1 21 -14 17 -16 17 -24 4z"/>
<path d="M585 940 c-3 -5 -1 -10 4 -10 6 0 11 5 11 10 0 6 -2 10 -4 10 -3 0
-8 -4 -11 -10z"/>
<path d="M2996 878 c3 -4 11 -5 19 -1 21 7 19 12 -4 10 -11 0 -18 -5 -15 -9z"/>
<path d="M1330 780 c0 -5 5 -10 11 -10 5 0 7 5 4 10 -3 6 -8 10 -11 10 -2 0
-4 -4 -4 -10z"/>
<path d="M1340 716 c0 -2 8 -10 18 -17 15 -13 16 -12 3 4 -13 16 -21 21 -21
13z"/>
<path d="M1395 609 c-4 -6 -5 -12 -2 -15 2 -3 7 2 10 11 7 17 1 20 -8 4z"/>
<path d="M3335 410 c-3 -5 -1 -10 4 -10 6 0 11 5 11 10 0 6 -2 10 -4 10 -3 0
-8 -4 -11 -10z"/>
</g>
</svg>
