<?xml version="1.0" standalone="no"?>
<!DOCTYPE svg PUBLIC "-//W3C//DTD SVG 20010904//EN"
 "http://www.w3.org/TR/2001/REC-SVG-20010904/DTD/svg10.dtd">
<svg version="1.0" xmlns="http://www.w3.org/2000/svg"
 width="260.000000pt" height="260.000000pt" viewBox="0 0 260.000000 260.000000"
 preserveAspectRatio="xMidYMid meet">
<metadata>
Created by potrace 1.11, written by Peter Selinger 2001-2013
</metadata>
<g transform="translate(0.000000,260.000000) scale(0.100000,-0.100000)"
fill="#000000" stroke="none">
<path d="M993 2385 c-29 -8 -75 -26 -103 -40 -27 -14 -98 -34 -157 -46 -147
-28 -336 -91 -411 -136 -66 -40 -162 -122 -162 -137 0 -5 -8 -18 -17 -28 -12
-14 -17 -37 -18 -77 0 -53 4 -62 40 -107 47 -58 58 -68 107 -94 46 -25 77 -25
85 -2 4 9 18 35 32 57 14 22 28 45 31 51 12 27 136 125 199 158 111 58 105 68
97 -161 -4 -108 -11 -229 -16 -269 -5 -39 -12 -137 -16 -218 -8 -169 0 -159
-127 -156 -45 2 -88 2 -96 1 -22 -2 -9 -101 18 -139 21 -31 25 -32 90 -32 43
0 72 -5 79 -13 8 -9 8 -56 0 -157 -15 -210 -5 -421 23 -485 32 -74 45 -85 100
-85 96 0 347 59 385 91 11 9 11 16 0 38 -23 47 -45 193 -56 368 -5 94 -10 180
-10 191 0 35 27 52 83 52 49 1 204 20 273 35 26 6 34 2 57 -28 15 -20 27 -40
27 -46 0 -6 5 -11 10 -11 6 0 14 -8 17 -17 4 -10 19 -36 34 -58 14 -22 43 -71
64 -110 50 -93 136 -239 144 -245 4 -3 14 -17 23 -32 30 -46 111 -129 167
-170 146 -109 289 -135 564 -102 l47 6 0 60 c0 53 -3 61 -22 66 -112 29 -341
210 -450 357 -59 79 -113 156 -121 175 -4 8 -16 29 -27 45 -11 17 -23 37 -27
45 -8 18 -70 109 -89 131 -27 30 -15 45 58 78 119 52 223 119 308 198 44 41
80 79 80 83 0 5 13 28 28 52 102 155 89 375 -31 505 -55 60 -70 73 -139 119
-120 80 -292 144 -468 173 -164 27 -207 31 -362 31 -163 0 -165 0 -188 25 -27
29 -74 32 -157 10z m462 -280 c177 -31 298 -86 390 -179 71 -71 95 -126 95
-220 0 -192 -134 -335 -395 -424 -120 -41 -406 -87 -438 -70 -16 8 -17 24 -11
201 15 498 22 673 29 689 4 9 16 19 28 22 35 7 214 -4 302 -19z"/>
</g>
</svg>
