<?xml version="1.0" standalone="no"?>
<!DOCTYPE svg PUBLIC "-//W3C//DTD SVG 20010904//EN"
 "http://www.w3.org/TR/2001/REC-SVG-20010904/DTD/svg10.dtd">
<svg version="1.0" xmlns="http://www.w3.org/2000/svg"
 width="350.000000pt" height="350.000000pt" viewBox="0 0 350.000000 350.000000"
 preserveAspectRatio="xMidYMid meet">
<metadata>
Created by potrace 1.11, written by Peter Selinger 2001-2013
</metadata>
<g transform="translate(0.000000,350.000000) scale(0.100000,-0.100000)"
fill="#000000" stroke="none">
<path d="M291 2843 c-6 -10 -11 -13 -11 -8 0 6 -12 -9 -26 -32 -14 -24 -29
-43 -33 -43 -5 0 -29 -21 -55 -47 -45 -45 -101 -142 -111 -194 -3 -13 -8 -37
-11 -54 -12 -58 -10 -180 4 -225 7 -25 15 -49 16 -55 1 -5 8 -21 15 -35 13
-22 15 -17 36 86 12 60 36 138 53 174 l31 65 1 -45 c1 -46 0 -142 -5 -430 -2
-91 -4 -216 -4 -277 l-1 -113 -30 4 c-34 4 -34 5 -31 -94 1 -46 7 -69 18 -77
9 -7 20 -10 24 -7 9 5 12 -11 11 -56 -5 -132 -2 -549 4 -600 4 -36 7 -72 8
-81 0 -19 35 -20 54 -1 8 7 18 10 23 7 5 -4 9 -2 9 3 0 5 11 22 25 38 17 20
23 36 20 54 -5 24 -13 247 -19 480 -2 131 2 152 34 157 13 2 27 7 30 12 3 5
15 11 28 15 18 6 22 4 23 -16 0 -13 2 -32 5 -43 2 -11 6 -31 9 -45 2 -14 6
-36 9 -50 6 -33 16 -96 22 -140 2 -19 6 -46 9 -60 2 -14 7 -41 10 -60 7 -44
22 -123 40 -205 3 -11 7 -30 9 -42 3 -12 10 -32 17 -45 7 -13 12 -24 11 -25
-6 -9 35 -83 45 -83 6 0 13 -6 16 -12 2 -7 19 -13 38 -13 38 0 69 24 93 70 15
28 14 31 -9 51 -25 21 -89 148 -99 195 -3 13 -16 64 -30 113 -14 49 -28 105
-30 125 -3 20 -7 46 -10 57 -8 40 -18 99 -21 134 -2 19 -4 35 -5 35 -3 0 -11
41 -14 65 -1 14 -5 30 -8 35 -9 15 -3 105 7 113 26 18 95 195 110 277 2 17 7
41 10 55 18 89 23 288 11 405 -15 135 -72 295 -130 360 -14 17 -26 34 -26 39
0 5 -3 6 -7 3 -3 -4 -15 0 -25 10 -10 9 -18 12 -18 8 0 -5 -7 0 -16 11 -8 10
-12 12 -8 4 7 -13 5 -13 -9 -1 -10 8 -33 12 -57 9 -22 -2 -40 -1 -41 2 -7 52
-22 70 -38 43z m99 -285 c0 -4 5 -8 10 -8 13 0 49 -36 72 -71 24 -38 58 -146
63 -204 2 -28 5 -51 5 -52 9 -17 -4 -247 -16 -293 -3 -14 -8 -34 -11 -45 -2
-11 -5 -24 -6 -30 -2 -5 -15 -35 -29 -65 -31 -66 -72 -112 -115 -131 -17 -7
-30 -16 -28 -19 2 -3 -4 -6 -13 -6 -15 0 -17 13 -16 106 1 58 3 265 5 460 1
195 4 358 7 363 5 10 72 5 72 -5z"/>
<path d="M2910 2440 c0 -5 -5 -9 -11 -7 -16 3 -46 -49 -55 -93 -7 -38 -8 -126
-2 -150 25 -92 77 -104 116 -27 51 102 54 216 8 262 -25 25 -56 33 -56 15z
m40 -142 c0 -24 -40 -108 -51 -108 -15 0 -10 77 6 90 8 7 15 18 15 25 0 6 7
12 15 12 8 0 15 -9 15 -19z"/>
<path d="M960 2062 c0 -6 -7 -9 -15 -6 -8 4 -15 1 -15 -5 0 -6 -6 -11 -12 -11
-15 0 -53 -46 -81 -98 -23 -44 -68 -172 -60 -172 3 0 1 -6 -4 -12 -6 -7 -11
-20 -11 -28 0 -8 -3 -26 -6 -39 -5 -24 -15 -93 -21 -161 -6 -53 -5 -281 0
-315 3 -16 7 -43 10 -60 15 -106 70 -225 105 -225 6 0 13 -7 16 -15 4 -8 10
-12 15 -9 6 3 17 0 26 -8 9 -7 14 -8 10 -2 -4 7 3 12 18 12 41 0 96 74 124
167 7 22 15 47 18 55 3 8 7 42 10 74 2 33 5 62 5 65 4 42 -18 40 -27 -1 -26
-117 -80 -197 -132 -196 -34 1 -68 36 -77 80 -3 12 -8 34 -11 48 -7 32 -15
149 -8 133 3 -7 11 -13 19 -13 9 0 13 -3 10 -8 -2 -4 9 -8 25 -8 18 -1 26 2
22 9 -4 7 0 8 13 3 10 -4 15 -4 12 0 -4 4 4 15 17 26 14 11 25 25 25 33 0 7 4
15 8 17 12 4 59 123 72 183 31 137 32 317 3 377 -7 15 -13 31 -12 34 3 10 -52
76 -59 70 -3 -3 -11 -1 -19 5 -9 8 -13 8 -13 1z m27 -144 c15 -35 8 -225 -11
-288 -9 -30 -17 -61 -18 -68 -1 -6 -3 -10 -6 -7 -2 2 -14 -10 -26 -28 -12 -17
-36 -41 -53 -53 -18 -12 -29 -25 -25 -29 4 -5 2 -5 -4 -2 -9 5 -11 77 -4 97 1
3 2 9 1 14 -1 5 3 34 10 65 6 31 13 63 14 71 2 8 4 16 4 18 1 1 1 3 1 5 -1 11
54 156 71 187 26 46 32 48 46 18z"/>
<path d="M1390 2060 c0 -5 -3 -9 -7 -8 -38 10 -119 -63 -159 -143 -15 -30 -26
-54 -24 -54 2 0 -1 -9 -7 -20 -23 -43 -36 -210 -23 -300 6 -40 47 -114 80
-145 31 -30 90 -64 90 -53 0 4 4 3 8 -3 4 -6 21 -15 37 -21 34 -11 75 -64 70
-91 -2 -9 -6 -29 -9 -43 -6 -29 -38 -69 -55 -69 -6 0 -11 -4 -11 -10 0 -14
-53 -12 -69 3 -11 10 -13 10 -7 0 17 -30 -5 -9 -25 24 -26 42 -31 60 -33 119
-1 47 -13 49 -38 6 -43 -73 -60 -238 -29 -276 7 -9 10 -16 7 -16 -22 0 60 -61
86 -64 3 -1 9 -4 13 -8 4 -4 12 -5 18 -3 7 3 23 6 37 9 25 4 92 36 77 36 -4 0
-2 6 5 14 7 8 17 11 22 8 5 -3 6 0 3 5 -4 6 0 16 8 23 8 7 15 16 15 21 0 4 5
20 12 36 18 45 19 54 24 149 4 110 -11 156 -69 215 -22 21 -43 39 -48 39 -11
0 -52 41 -76 77 -67 99 -65 282 3 382 13 20 24 32 24 28 0 -5 7 -2 15 7 15 15
50 11 40 -4 -3 -5 0 -10 6 -12 16 -5 22 -101 8 -150 -18 -70 -19 -78 -3 -78 8
0 14 -4 14 -8 0 -20 53 -7 68 17 21 31 24 249 5 273 -7 8 -10 18 -6 21 3 4 1
7 -5 7 -7 0 -12 7 -12 15 0 8 -18 24 -40 35 -22 11 -40 16 -40 10z"/>
<path d="M1795 2060 c-3 -5 -13 -10 -21 -10 -53 0 -152 -201 -178 -365 -3 -16
-9 -52 -13 -80 -4 -27 -8 -133 -7 -235 0 -179 10 -255 42 -340 5 -14 10 -28
11 -33 0 -4 10 -17 21 -29 11 -12 20 -25 20 -30 0 -4 7 -8 16 -8 8 0 13 -4 10
-8 -2 -4 5 -9 16 -9 12 -1 25 -8 29 -15 7 -11 9 -11 9 0 0 7 5 10 11 6 6 -3
15 0 20 7 7 11 9 11 9 1 0 -18 58 45 79 88 45 88 81 267 61 301 -8 11 -10 11
-13 -1 -3 -8 -12 -41 -21 -72 -24 -82 -75 -153 -112 -154 -31 -1 -68 18 -57
29 3 4 2 7 -4 7 -21 0 -38 65 -47 178 l-4 54 21 -19 c24 -21 34 -23 56 -9 10
7 12 5 6 -5 -4 -8 10 4 31 26 22 22 53 72 70 110 36 81 69 207 61 235 -3 11
-2 20 2 20 8 0 6 181 -2 210 -19 73 -29 100 -37 100 -6 0 -10 5 -10 11 0 14
-30 43 -37 35 -3 -3 -12 -1 -19 5 -8 7 -14 7 -19 -1z m36 -160 c12 -58 2 -231
-16 -285 -15 -43 -75 -141 -75 -122 0 3 -12 -6 -26 -20 -21 -21 -28 -23 -35
-12 -4 8 -6 23 -4 34 3 11 6 40 9 65 2 25 12 77 21 115 9 39 18 75 19 82 1 7
5 16 9 19 4 4 7 14 7 23 0 24 63 142 74 138 6 -2 14 -19 17 -37z"/>
<path d="M2426 2001 c-17 -14 -36 -30 -42 -36 -7 -6 -8 -21 -3 -40 16 -63 24
-150 33 -375 6 -146 25 -337 41 -410 1 -3 5 -25 10 -50 5 -25 9 -47 10 -50 14
-68 32 -119 46 -133 11 -10 19 -13 19 -7 0 6 4 9 9 5 5 -3 12 -1 16 5 4 6 10
8 14 6 9 -6 49 69 55 105 2 13 5 25 7 27 1 1 2 5 4 10 11 42 16 61 19 82 3 14
5 25 6 25 1 0 3 7 5 15 22 113 35 180 39 205 3 17 7 44 10 60 3 17 8 55 12 85
3 30 7 66 9 80 17 132 24 349 13 357 -5 2 -6 9 -3 14 4 5 1 9 -5 9 -6 0 -9 4
-5 9 3 6 -6 6 -25 1 -17 -5 -34 -8 -38 -7 -4 1 -15 -13 -24 -32 -13 -26 -14
-39 -6 -60 21 -55 7 -349 -28 -556 -2 -16 -9 -57 -14 -90 -10 -56 -26 -130
-36 -164 -7 -23 -22 0 -29 44 -16 102 -20 164 -30 465 -4 107 -8 233 -10 280
-6 152 -18 171 -79 121z"/>
<path d="M2247 1988 c-15 -11 -41 -49 -56 -83 -28 -61 -35 -83 -47 -150 -11
-63 -15 -35 -12 88 2 102 0 130 -11 136 -13 9 -56 -8 -46 -17 2 -2 -8 -14 -23
-27 -30 -26 -29 -7 -35 -632 -3 -343 2 -386 43 -389 40 -3 66 40 61 101 -10
128 -1 414 15 490 3 11 7 30 10 43 2 12 6 34 10 50 38 192 105 205 108 20 0
-42 4 -79 7 -82 10 -11 58 89 72 150 19 84 12 186 -18 262 -23 56 -42 66 -78
40z"/>
<path d="M3280 1989 c0 -7 -3 -9 -6 -6 -11 10 -69 -54 -103 -114 -31 -55 -95
-219 -86 -219 2 0 0 -12 -5 -26 -18 -47 -34 -202 -32 -314 1 -121 11 -198 32
-265 6 -16 10 -33 10 -38 0 -4 4 -13 10 -20 6 -6 18 -21 28 -33 25 -30 70 -36
93 -13 11 11 19 16 19 12 0 -15 54 93 71 142 12 34 18 42 18 25 -1 -102 30
-190 66 -190 13 0 26 -6 28 -12 4 -10 6 -10 6 0 1 7 8 20 16 28 19 20 19 48 0
78 -14 21 -15 69 -10 377 5 321 6 409 3 428 0 3 1 11 2 16 5 25 2 134 -4 143
-9 14 -31 9 -55 -12 -28 -26 -34 -69 -46 -376 -6 -150 -11 -190 -37 -295 -19
-79 -63 -175 -80 -175 -12 0 -48 38 -49 53 0 6 -3 23 -6 37 -20 87 1 322 39
440 25 78 42 111 88 169 41 53 45 75 25 124 -15 37 -35 57 -35 36z"/>
<path d="M2935 1980 c-3 -5 -11 -8 -16 -5 -5 4 -9 1 -9 -5 0 -6 -4 -9 -9 -6
-5 3 -12 -1 -15 -10 -4 -9 -9 -14 -13 -10 -14 14 -35 -38 -33 -82 2 -54 3
-584 1 -622 -3 -34 8 -280 12 -305 5 -25 45 -27 70 -5 15 15 18 45 23 251 3
129 7 263 8 299 2 36 7 155 11 265 4 110 9 203 11 206 2 4 -5 14 -15 23 -13
12 -21 14 -26 6z"/>
</g>
</svg>
