<?xml version="1.0" standalone="no"?>
<!DOCTYPE svg PUBLIC "-//W3C//DTD SVG 20010904//EN"
 "http://www.w3.org/TR/2001/REC-SVG-20010904/DTD/svg10.dtd">
<svg version="1.0" xmlns="http://www.w3.org/2000/svg"
 width="260.000000pt" height="260.000000pt" viewBox="0 0 260.000000 260.000000"
 preserveAspectRatio="xMidYMid meet">
<metadata>
Created by potrace 1.11, written by Peter Selinger 2001-2013
</metadata>
<g transform="translate(0.000000,260.000000) scale(0.100000,-0.100000)"
fill="#000000" stroke="none">
<path d="M1060 2404 c0 -6 -14 -10 -30 -9 -19 1 -34 -4 -40 -14 -5 -9 -10 -11
-10 -4 0 8 -6 8 -24 0 -13 -7 -22 -15 -20 -19 3 -4 -1 -5 -9 -2 -8 3 -18 0
-22 -5 -3 -6 -11 -9 -16 -6 -5 4 -9 1 -9 -4 0 -6 -3 -10 -7 -10 -22 4 -43 -2
-39 -10 3 -5 -8 -8 -25 -7 -16 1 -32 -1 -35 -6 -8 -13 -26 -9 -19 5 4 6 1 5
-7 -4 -7 -8 -24 -15 -38 -16 -14 0 -43 -5 -64 -11 -22 -6 -44 -8 -49 -5 -6 3
-7 1 -3 -5 4 -6 -1 -10 -11 -10 -25 1 -47 -5 -55 -16 -3 -5 -17 -11 -30 -12
-47 -5 -63 -9 -70 -18 -3 -5 -16 -10 -27 -11 -12 -1 -28 -10 -36 -21 -9 -11
-14 -14 -15 -6 0 8 -11 3 -26 -12 -16 -14 -33 -22 -43 -18 -14 5 -14 4 -2 -11
12 -15 12 -17 -3 -11 -9 3 -16 1 -16 -5 0 -6 -6 -10 -12 -8 -7 1 -12 -4 -10
-11 1 -8 -2 -11 -8 -7 -5 3 -13 -1 -16 -9 -3 -9 -12 -16 -20 -16 -8 0 -13 -3
-11 -7 1 -5 -2 -9 -7 -10 -15 -3 -26 -27 -20 -48 4 -14 3 -16 -4 -7 -7 10 -12
9 -23 -4 -9 -12 -10 -15 -1 -10 6 4 12 2 12 -3 0 -6 -4 -11 -8 -11 -4 0 -8
-20 -8 -45 -1 -24 2 -43 6 -40 4 2 7 -2 7 -10 0 -8 -4 -12 -9 -9 -4 3 -8 0 -8
-5 0 -6 8 -11 18 -11 14 0 15 -2 2 -10 -13 -8 -12 -10 3 -10 10 0 15 -4 12
-10 -3 -5 1 -10 10 -10 11 0 15 -5 11 -16 -3 -8 -2 -12 4 -9 6 3 10 1 10 -4 0
-6 8 -11 17 -11 9 0 14 -3 10 -6 -7 -8 17 -34 32 -34 6 0 11 -5 11 -11 0 -5 4
-8 9 -4 5 3 13 0 16 -6 4 -5 13 -8 21 -5 8 3 14 1 14 -5 0 -5 11 -2 25 7 19
12 23 20 15 29 -8 10 -8 15 1 21 8 4 9 3 5 -4 -4 -7 -2 -12 5 -12 6 0 9 8 6
19 -3 15 -1 18 11 14 10 -4 13 -2 8 5 -4 7 -4 17 0 23 5 8 9 8 14 -1 5 -8 9
-5 13 9 3 12 1 19 -4 15 -19 -11 -7 3 43 51 29 28 49 44 44 38 -4 -7 -2 -13 3
-13 6 0 11 7 11 16 0 8 3 13 8 11 9 -6 33 19 25 27 -3 3 4 4 16 1 14 -2 21 1
21 11 0 8 5 12 10 9 6 -3 10 -1 10 5 0 6 5 8 10 5 6 -3 10 -1 10 6 0 7 3 9 6
6 4 -4 19 2 33 12 26 18 57 18 45 0 -3 -5 0 -9 7 -9 7 0 8 -5 3 -12 -8 -12
-10 -33 -4 -48 6 -17 7 -39 1 -35 -4 2 -8 -9 -8 -25 0 -17 5 -30 11 -30 7 0 7
-3 -1 -8 -7 -4 -10 -16 -9 -27 2 -11 -2 -26 -8 -34 -8 -11 -8 -13 0 -8 7 4 11
-4 10 -23 -1 -17 -4 -30 -8 -30 -5 0 -8 -5 -8 -11 0 -5 4 -8 9 -5 4 3 6 -6 3
-19 -2 -14 -7 -23 -11 -21 -3 2 -6 -7 -6 -20 0 -13 5 -22 10 -20 12 4 12 -34
1 -53 -5 -8 -3 -17 5 -22 10 -6 10 -9 2 -9 -7 0 -10 -7 -7 -17 5 -15 4 -15 -4
-3 -6 8 -8 18 -5 24 3 5 2 6 -4 3 -5 -3 -8 -20 -5 -38 4 -24 2 -30 -8 -24 -10
6 -11 4 -4 -6 5 -8 9 -17 9 -21 0 -3 4 -10 9 -15 5 -5 6 -2 1 6 -6 10 -4 12 5
6 10 -6 7 -13 -11 -27 -13 -11 -19 -17 -12 -14 19 10 25 -11 7 -28 -11 -11
-12 -16 -3 -16 10 0 10 -3 1 -12 -9 -9 -9 -15 0 -26 9 -10 8 -16 -3 -23 -10
-6 -11 -9 -1 -9 9 0 10 -5 2 -19 -7 -14 -6 -21 3 -24 9 -4 9 -6 0 -6 -7 -1
-13 -8 -13 -17 0 -9 5 -12 13 -8 8 5 8 2 -2 -9 -11 -13 -11 -17 -1 -17 29 0
-1 -12 -42 -16 -23 -3 -47 -5 -53 -6 -5 -1 -21 2 -34 6 -17 6 -22 5 -16 -4 5
-9 2 -10 -11 -3 -34 17 -69 10 -70 -13 -1 -12 -5 -27 -9 -34 -5 -8 -4 -11 2
-7 6 4 11 -4 11 -18 0 -16 -5 -22 -12 -18 -6 4 -5 -1 3 -10 7 -9 18 -14 24
-10 6 3 7 1 3 -5 -4 -7 -1 -12 6 -12 9 0 10 -2 2 -8 -9 -5 -8 -11 2 -20 8 -7
14 -10 14 -8 0 3 11 1 25 -4 14 -5 25 -6 25 -1 0 12 43 1 52 -13 5 -7 8 -7 8
2 0 15 31 12 42 -3 12 -16 9 -27 -4 -19 -10 6 -10 4 0 -7 16 -17 16 -32 0 -23
-9 5 -9 2 1 -9 9 -12 10 -17 2 -17 -9 0 -9 -5 -1 -20 8 -15 8 -20 -2 -20 -9 0
-9 -3 2 -10 8 -5 10 -10 3 -10 -6 0 -9 -9 -5 -22 3 -14 1 -19 -6 -14 -8 5 -10
2 -6 -8 3 -9 10 -13 15 -10 5 3 9 0 9 -5 0 -6 -7 -11 -15 -11 -18 0 -19 -12
-3 -28 8 -8 8 -15 -2 -27 -10 -12 -10 -19 -2 -27 15 -15 16 -32 2 -23 -5 3
-10 1 -10 -4 0 -6 4 -11 8 -11 10 0 9 -86 -1 -96 -4 -4 -7 -12 -7 -18 0 -6 5
-4 10 4 9 13 10 13 10 -1 0 -8 -6 -21 -13 -28 -7 -9 -7 -11 -1 -8 7 4 14 0 17
-8 4 -8 1 -12 -7 -9 -7 3 -12 -4 -12 -20 0 -14 4 -22 8 -20 8 5 12 -40 9 -78
-2 -11 5 -18 15 -18 16 0 16 -1 -2 -15 -18 -13 -18 -14 5 -8 15 4 22 2 18 -4
-4 -6 0 -18 7 -29 8 -10 12 -24 9 -30 -5 -15 145 -16 154 -1 3 5 9 3 14 -4 6
-10 9 -10 9 -2 0 6 9 10 20 8 11 -2 20 -1 20 3 0 4 12 7 28 6 15 -1 32 3 38 8
7 5 16 8 20 7 22 -4 45 2 40 10 -3 4 6 7 19 5 14 -1 25 2 25 7 0 6 4 8 9 4 5
-3 12 -1 16 4 3 5 14 8 25 6 12 -2 18 0 15 6 -4 5 -1 9 6 9 10 0 10 3 1 12 -7
7 -12 17 -12 22 0 6 5 4 10 -4 8 -13 10 -12 10 3 0 16 -12 22 -34 18 -5 -1 -3
6 5 15 9 12 9 15 2 10 -7 -4 -13 -2 -13 3 0 6 5 11 10 11 6 0 2 12 -7 27 -10
15 -12 24 -5 20 6 -5 12 -4 12 2 0 10 -14 15 -33 12 -5 -1 -6 3 -2 9 3 6 10 8
15 5 5 -3 12 0 16 6 4 7 3 9 -3 6 -6 -4 -16 0 -23 8 -11 13 -10 14 4 9 9 -3
16 -1 16 5 0 6 -5 11 -11 11 -6 0 -9 9 -6 20 3 11 0 20 -6 20 -6 0 -2 7 9 15
16 13 17 14 1 9 -19 -7 -21 15 -2 28 6 5 6 8 -2 8 -6 0 -9 9 -5 22 4 16 2 19
-9 13 -12 -8 -12 -6 0 8 7 9 10 17 6 17 -4 0 -2 6 4 14 9 11 9 16 0 22 -8 4
-9 3 -5 -4 4 -7 2 -12 -3 -12 -14 0 -14 13 1 28 9 9 9 12 -2 12 -10 0 -11 3
-3 11 6 6 9 18 6 25 -3 8 1 14 8 14 7 0 9 3 6 6 -4 4 -14 1 -23 -7 -16 -13
-16 -12 -5 9 17 31 23 82 10 82 -6 0 -8 -4 -5 -8 3 -5 -1 -9 -9 -9 -8 0 -15 4
-15 9 0 4 4 8 10 8 5 0 8 14 6 30 -2 17 -1 28 2 26 3 -3 11 2 19 12 9 10 11
11 7 2 -7 -13 -5 -13 9 -1 9 7 24 11 32 7 8 -3 15 -2 15 2 0 4 21 7 48 6 26 0
57 3 68 7 13 4 26 3 32 -3 8 -8 13 -7 17 3 4 11 17 14 45 12 26 -2 40 1 40 9
0 6 3 8 7 5 3 -4 13 -1 21 6 10 8 13 8 9 1 -4 -7 0 -15 9 -18 8 -3 13 -2 10 2
-3 5 1 9 9 9 8 0 12 -4 9 -9 -4 -5 2 -16 12 -24 11 -9 12 -12 4 -8 -8 4 -5 -3
8 -15 12 -12 20 -26 17 -32 -4 -5 1 -9 9 -9 8 0 18 -5 22 -12 5 -7 2 -9 -7 -4
-8 4 -4 -1 9 -12 15 -14 18 -22 10 -25 -7 -3 -4 -6 7 -6 17 -1 17 -3 5 -11
-13 -8 -12 -10 4 -10 12 0 16 -5 13 -14 -4 -10 -1 -13 7 -10 7 3 16 -2 20 -11
4 -10 2 -14 -5 -9 -7 4 -10 1 -7 -7 3 -8 11 -13 18 -11 11 3 11 0 0 -13 -7 -9
-9 -15 -4 -14 28 5 33 -1 23 -27 -9 -25 -8 -26 8 -13 15 12 16 12 10 -4 -5
-14 -2 -20 13 -24 11 -3 20 -10 20 -15 0 -5 -4 -6 -10 -3 -15 9 -12 -4 4 -20
7 -8 17 -11 20 -7 4 4 3 -5 -2 -19 -9 -22 -8 -25 11 -25 17 1 21 -4 19 -21 -2
-14 4 -26 17 -33 12 -6 21 -17 21 -25 0 -8 9 -20 19 -27 16 -10 18 -15 8 -27
-9 -12 -9 -13 1 -7 7 4 12 2 12 -4 0 -6 5 -8 10 -5 9 6 14 -8 11 -27 -1 -8 15
-12 33 -9 5 1 3 -5 -4 -14 -11 -14 -11 -16 1 -13 8 2 13 -2 12 -9 -2 -8 4 -10
15 -6 9 3 14 3 11 -1 -8 -8 40 -60 48 -52 3 3 16 -7 29 -21 13 -14 24 -22 24
-17 0 5 5 1 11 -9 6 -9 14 -15 19 -12 4 3 11 -2 14 -11 4 -10 13 -13 27 -9 16
5 19 4 14 -5 -5 -8 -3 -11 6 -8 8 3 20 -2 27 -11 11 -13 12 -13 6 -1 -5 10 1
8 16 -5 14 -12 20 -14 15 -5 -7 12 -6 13 7 3 8 -7 18 -10 21 -6 4 3 14 0 24
-8 15 -12 16 -12 8 1 -7 12 -6 13 6 4 8 -6 48 -11 91 -10 43 1 78 -3 78 -7 0
-5 5 -5 12 -1 6 4 30 8 52 10 23 1 42 3 44 4 4 5 22 7 52 9 l31 1 -3 63 c-2
43 -7 61 -15 59 -7 -1 -13 2 -13 8 0 5 -9 10 -20 10 -11 0 -20 5 -20 10 0 6
-3 9 -7 8 -15 -3 -63 22 -63 32 0 6 -5 8 -10 5 -12 -8 -62 30 -52 39 3 4 -1 4
-11 0 -12 -4 -17 -1 -17 9 0 9 -4 19 -10 22 -6 3 -8 -2 -5 -12 4 -13 3 -13 -5
2 -6 12 -21 25 -32 30 -12 6 -26 19 -32 30 -6 11 -16 23 -23 28 -7 4 -18 13
-25 20 -7 7 -21 16 -30 20 -10 3 -18 16 -18 27 0 12 -4 19 -9 15 -5 -3 -12 4
-16 15 -3 11 -14 20 -23 20 -14 0 -14 2 -3 9 11 7 9 10 -9 16 -18 6 -20 9 -9
16 12 7 11 9 -1 10 -8 1 -19 1 -24 0 -5 -1 -6 5 -3 14 4 8 2 15 -3 15 -13 0
-51 61 -45 71 3 4 -3 13 -13 20 -16 13 -16 13 -2 -5 9 -12 10 -17 3 -12 -7 4
-18 16 -24 28 -8 14 -8 18 0 14 7 -5 9 -1 5 8 -3 9 -13 16 -21 16 -9 0 -13 6
-10 14 3 8 1 17 -6 20 -9 3 -8 8 3 16 13 9 12 10 -5 8 -14 -2 -20 2 -19 14 1
10 -3 16 -10 15 -6 -1 -10 6 -8 15 2 11 -2 16 -10 13 -9 -4 -14 2 -15 15 -2
29 -35 68 -53 62 -12 -4 -13 -3 -2 10 10 13 10 17 -5 22 -15 6 -15 8 -2 22 8
8 26 17 39 19 14 3 38 14 54 26 16 12 25 16 21 9 -6 -9 -3 -9 14 -1 11 7 21
16 21 21 0 5 6 7 14 4 8 -3 17 0 21 5 3 6 11 8 17 5 6 -4 8 -2 5 3 -4 6 1 17
10 24 14 12 16 12 9 -1 -6 -12 -4 -11 6 1 7 9 19 14 27 11 9 -3 11 0 6 8 -6
10 -3 12 11 6 10 -4 15 -4 12 0 -10 9 17 34 36 34 10 0 13 6 10 15 -4 11 -2
13 9 10 9 -4 16 2 20 15 3 12 10 19 15 16 11 -7 50 36 45 51 -2 6 1 15 8 19 8
5 9 3 4 -5 -5 -10 -3 -10 13 0 11 7 18 18 16 24 -3 6 5 17 18 24 18 9 19 11 3
6 -19 -5 -19 -4 -3 8 10 8 14 18 10 22 -4 5 1 5 11 2 10 -4 16 -3 13 1 -3 5 1
21 9 36 8 14 10 24 5 21 -5 -3 -12 0 -16 6 -4 8 -3 9 4 5 7 -4 12 -3 12 3 0 6
6 9 13 7 6 -1 9 -1 5 1 -5 3 -8 11 -8 19 0 10 5 12 13 8 8 -5 8 -2 -2 9 -12
16 -9 21 12 18 4 -1 4 7 -1 16 -5 10 -7 24 -5 31 3 6 -1 12 -9 12 -11 0 -11 2
0 9 7 4 13 18 13 29 -1 12 -1 31 -2 42 0 11 -6 20 -12 20 -8 0 -8 3 -2 8 21
15 16 34 -7 28 -13 -3 -17 -3 -10 0 6 3 10 10 7 15 -4 5 2 6 12 3 15 -6 15 -4
-2 9 -11 9 -16 17 -11 17 6 0 1 7 -10 16 -10 8 -13 13 -6 9 6 -3 12 -1 12 4 0
6 -7 11 -15 11 -8 0 -15 9 -15 21 0 13 -4 18 -12 13 -8 -5 -9 -2 -5 9 4 11 1
17 -9 17 -8 0 -12 5 -9 10 3 6 -2 10 -11 10 -10 0 -15 3 -11 6 3 4 -4 15 -16
26 -12 11 -16 16 -8 12 10 -5 12 -3 7 5 -5 7 -15 10 -23 7 -8 -3 -12 -2 -9 3
3 5 -2 15 -11 22 -12 10 -14 10 -9 2 4 -7 2 -13 -3 -13 -6 0 -11 6 -11 14 0 8
-13 20 -30 28 -16 7 -30 19 -30 25 0 7 -5 13 -11 13 -5 0 -7 -4 -4 -10 3 -6
-1 -7 -9 -4 -9 3 -16 9 -16 13 0 9 -51 35 -62 33 -5 -1 -8 2 -8 8 0 5 -7 7
-15 4 -8 -4 -15 -1 -15 6 0 6 -4 9 -9 6 -5 -4 -11 -1 -13 5 -2 6 -16 12 -31
12 -15 0 -24 3 -21 8 3 5 -5 9 -18 9 -13 0 -30 6 -37 13 -11 10 -12 9 -6 -3 7
-13 6 -13 -7 -2 -9 7 -29 15 -44 17 -16 2 -44 8 -61 14 -18 5 -33 7 -33 4 0
-3 -6 -1 -12 4 -7 6 -20 11 -28 11 -69 2 -102 7 -107 15 -3 5 -9 3 -14 -4 -6
-9 -11 -11 -16 -4 -9 12 -33 14 -251 15 -126 1 -151 4 -142 15 8 10 8 15 -1
21 -8 4 -9 3 -5 -4 13 -21 -5 -13 -24 10 -14 18 -21 20 -32 10 -11 -9 -17 -9
-26 0 -7 7 -12 8 -12 2z m150 -288 c0 -8 2 -8 8 0 8 13 122 13 122 0 0 -5 7
-3 15 4 8 7 15 8 15 3 0 -8 25 -13 78 -13 12 0 22 -4 22 -8 0 -13 30 -10 30 2
0 6 5 3 11 -7 6 -9 14 -15 19 -12 5 3 19 1 30 -5 14 -8 20 -8 20 0 0 6 7 4 16
-4 8 -9 20 -14 25 -11 5 4 9 1 9 -5 0 -6 5 -8 10 -5 6 3 10 2 10 -4 0 -6 7 -8
15 -5 8 4 15 1 15 -5 0 -6 9 -11 20 -11 11 0 20 -5 20 -10 0 -6 3 -9 8 -8 15
3 62 -26 62 -38 0 -8 6 -11 17 -7 11 4 14 3 9 -5 -4 -7 -1 -12 8 -12 8 0 23
-11 34 -25 11 -13 23 -21 28 -17 5 4 2 -2 -6 -12 -10 -13 -10 -17 -2 -12 7 4
12 1 12 -9 0 -10 5 -13 12 -9 7 4 8 3 4 -4 -4 -6 2 -19 13 -29 19 -16 20 -18
3 -36 -17 -19 -16 -20 8 -7 l25 13 -19 -22 c-14 -16 -16 -20 -5 -16 13 5 15
-4 14 -52 -1 -32 3 -64 9 -72 8 -11 8 -13 -1 -7 -12 6 -18 -10 -14 -36 0 -4
-5 -5 -12 -2 -8 3 -14 -2 -14 -11 0 -8 5 -15 11 -15 6 0 0 -9 -14 -20 -14 -11
-21 -20 -17 -20 4 0 3 -9 -3 -20 -6 -11 -15 -18 -21 -15 -5 4 -9 3 -8 -2 1 -4
1 -17 0 -28 -1 -14 -4 -16 -9 -7 -6 9 -12 5 -20 -14 -8 -15 -18 -24 -26 -21
-8 3 -16 -2 -19 -14 -3 -11 -11 -18 -18 -17 -7 2 -13 -4 -14 -12 0 -8 -7 -15
-15 -16 -24 -1 -50 -15 -44 -25 3 -5 -2 -6 -10 -3 -9 3 -16 1 -16 -6 0 -6 -4
-8 -10 -5 -5 3 -10 1 -10 -5 0 -6 -4 -9 -9 -5 -5 3 -12 1 -16 -5 -4 -6 -10 -8
-15 -5 -5 3 -21 -2 -35 -11 -14 -9 -25 -13 -25 -9 0 4 -6 2 -13 -4 -8 -6 -17
-8 -20 -4 -4 3 -7 1 -7 -5 0 -7 -5 -12 -11 -12 -5 0 -7 6 -4 13 4 6 1 5 -7 -4
-7 -9 -23 -14 -36 -13 -12 2 -22 0 -22 -5 0 -5 -8 -8 -17 -6 -10 1 -24 -2 -30
-8 -9 -6 -13 -5 -13 4 0 9 -3 10 -8 4 -8 -12 -22 -15 -77 -20 -22 -2 -49 -6
-60 -8 -11 -3 -26 0 -33 6 -9 7 -11 6 -7 -4 4 -11 -6 -14 -45 -15 -27 0 -47 2
-45 5 3 2 -3 14 -12 25 -10 12 -11 15 -3 8 22 -19 35 -14 16 7 -13 14 -14 21
-5 27 8 5 10 3 4 -7 -5 -8 -4 -11 0 -6 13 12 16 45 4 52 -6 5 -6 12 3 22 11
14 10 15 -12 8 -24 -7 -24 -6 -6 8 20 14 30 57 14 57 -4 0 -8 5 -8 11 0 5 4 8
9 4 5 -3 13 -1 16 5 4 6 3 10 -2 9 -20 -3 -25 2 -13 16 10 12 10 15 0 15 -9 0
-10 3 -1 13 8 10 7 17 -2 27 -9 10 -9 11 1 6 7 -5 12 -1 12 9 0 9 -4 14 -8 11
-5 -3 -9 1 -9 9 0 8 4 12 9 9 4 -3 8 2 8 11 0 9 -4 14 -8 11 -5 -3 -9 1 -9 9
0 8 4 12 9 9 4 -3 8 2 8 11 0 10 -5 13 -12 9 -7 -5 -8 -3 -3 6 4 7 8 26 7 42
0 18 3 26 10 22 7 -5 8 -2 3 6 -13 20 -15 81 -3 74 6 -4 5 2 -1 14 -14 27 -14
35 2 26 9 -5 9 -4 0 6 -10 11 -9 16 5 27 9 8 12 12 6 9 -7 -3 -15 1 -18 10 -5
12 -2 15 10 10 14 -6 15 -4 4 9 -18 22 -20 144 -3 138 7 -3 13 0 13 6 0 6 -6
11 -12 11 -9 0 -8 4 2 10 8 5 10 10 4 10 -7 0 -14 7 -18 15 -4 12 -2 13 13 5
17 -8 18 -6 14 23 -4 31 -3 32 37 33 24 1 40 -3 40 -10z m-110 -814 c0 -5 -7
-9 -15 -9 -8 0 -12 4 -9 9 3 4 9 8 15 8 5 0 9 -4 9 -8z m799 -246 c-3 -3 -11
5 -18 17 -13 21 -12 21 5 5 10 -10 16 -20 13 -22z m-804 -165 c3 -5 2 -12 -3
-15 -5 -3 -9 1 -9 9 0 17 3 19 12 6z m1170 -331 c3 -5 1 -10 -4 -10 -6 0 -11
5 -11 10 0 6 2 10 4 10 3 0 8 -4 11 -10z"/>
<path d="M1924 1652 c3 -5 0 -13 -6 -15 -9 -4 -10 -6 -1 -6 17 -1 25 16 12 25
-7 4 -9 3 -5 -4z"/>
<path d="M686 1574 c-5 -14 -4 -15 9 -4 17 14 19 20 6 20 -5 0 -12 -7 -15 -16z"/>
<path d="M1095 960 c-3 -5 -1 -10 4 -10 6 0 11 5 11 10 0 6 -2 10 -4 10 -3 0
-8 -4 -11 -10z"/>
<path d="M625 640 c6 -30 16 -40 12 -12 -2 12 -6 24 -10 28 -3 4 -4 -4 -2 -16z"/>
</g>
</svg>
